<svg xmlns="http://www.w3.org/2000/svg" width="512" height="512"><path d="M0 0h510.787v510.787H0z" style="fill:#092e20;stroke-width:3.77953;stroke-linecap:round;stroke-linejoin:round;fill-opacity:1"/><path d="M226.911 90.378h60.406v279.605c-30.988 5.888-53.74 8.24-78.447 8.24-73.743-.003-112.183-33.337-112.183-97.276 0-61.583 40.795-101.59 103.943-101.59 9.807 0 17.26.785 26.281 3.137zm0 140.74c-7.06-2.351-12.944-3.134-20.396-3.134-30.593 0-48.247 18.826-48.247 51.774 0 32.166 16.87 49.814 47.857 49.814 6.664 0 12.157-.392 20.786-1.564z" style="fill:#fff;fill-opacity:1;stroke-width:2.8861" transform="translate(15.346 -19.695)"/><path d="M383.407 183.66v140.03c0 48.247-3.533 71.388-14.122 91.392-9.807 19.224-22.75 31.38-49.421 44.717l-56.092-26.67c26.674-12.555 39.615-23.531 47.852-40.406 8.63-17.256 11.38-37.26 11.38-89.821V183.66ZM323 90.698h60.406v61.976H323z" style="fill:#fff;fill-opacity:1;stroke-width:2.8861" transform="translate(15.346 -19.695)"/></svg>