<svg xmlns="http://www.w3.org/2000/svg" width="512" height="512"><path fill="#f0db4f" d="M0 0h510.787v510.787H0Z" style="stroke-width:4.08027"/><path fill="#323330" d="M468.984 388.963c-3.741-23.303-18.936-42.876-63.946-61.127-15.636-7.185-33.067-12.33-38.26-24.18-1.845-6.895-2.09-10.78-.923-14.953 3.35-13.547 19.52-17.77 32.336-13.886 8.255 2.767 16.068 9.128 20.781 19.276 22.042-14.273 21.997-14.18 37.388-23.988-5.635-8.736-8.642-12.767-12.33-16.505-13.258-14.807-31.321-22.433-60.21-21.85l-15.048 1.947c-14.42 3.643-28.162 11.212-36.22 21.36-24.18 27.435-17.284 75.452 12.138 95.213 28.987 21.755 71.569 26.705 77.008 47.049 5.292 24.906-18.304 32.968-41.758 30.104-17.284-3.595-26.897-12.38-37.29-28.354-19.128 11.07-19.128 11.07-38.795 22.38 4.664 10.197 9.564 14.812 17.382 23.646 37 37.53 129.59 35.686 146.197-21.12.673-1.95 5.145-14.958 1.55-35.012zM277.68 234.757h-47.776l-.196 123.518c0 26.269 1.359 50.35-2.913 57.731-6.99 14.518-25.102 12.719-33.357 9.903-8.401-4.129-12.673-10-17.622-18.3-1.36-2.383-2.38-4.227-2.722-4.37l-38.844 23.788c6.459 13.257 15.974 24.763 28.162 32.238 18.206 10.927 42.675 14.277 68.267 8.402 16.656-4.852 31.027-14.901 38.55-30.198 10.879-20.055 8.545-44.328 8.447-71.176.245-43.802.004-87.595.004-131.536z" style="stroke-width:4.08027"/></svg>