<?xml version="1.0" encoding="UTF-8" standalone="no"?>
<!-- Created with Inkscape (http://www.inkscape.org/) -->

<svg
   width="512"
   height="512"
   viewBox="0 0 512 512"
   version="1.1"
   id="svg5"
   sodipodi:docname="python.svg"
   inkscape:version="1.1.2 (0a00cf5339, 2022-02-04)"
   inkscape:export-filename="/home/wilsoft/cosas para aprender/pagina web/backend/djangoblog/languages/python.png"
   inkscape:export-xdpi="96"
   inkscape:export-ydpi="96"
   xmlns:inkscape="http://www.inkscape.org/namespaces/inkscape"
   xmlns:sodipodi="http://sodipodi.sourceforge.net/DTD/sodipodi-0.dtd"
   xmlns="http://www.w3.org/2000/svg"
   xmlns:svg="http://www.w3.org/2000/svg">
  <sodipodi:namedview
     id="namedview7"
     pagecolor="#ffffff"
     bordercolor="#666666"
     borderopacity="1.0"
     inkscape:pageshadow="2"
     inkscape:pageopacity="0.0"
     inkscape:pagecheckerboard="0"
     inkscape:document-units="px"
     showgrid="false"
     showguides="true"
     inkscape:guide-bbox="true"
     inkscape:zoom="0.82421875"
     inkscape:cx="171.67773"
     inkscape:cy="300.28436"
     inkscape:window-width="1920"
     inkscape:window-height="1016"
     inkscape:window-x="0"
     inkscape:window-y="27"
     inkscape:window-maximized="1"
     inkscape:current-layer="layer1">
    <sodipodi:guide
       position="-285.11848,512"
       orientation="0,-1"
       id="guide868" />
    <sodipodi:guide
       position="0,387.03318"
       orientation="1,0"
       id="guide870" />
    <sodipodi:guide
       position="510.78673,169.85782"
       orientation="1,0"
       id="guide872" />
    <sodipodi:guide
       position="262.06635,1.2132704"
       orientation="0,-1"
       id="guide874" />
    <sodipodi:guide
       position="458.61611,441.63033"
       orientation="0,-1"
       id="guide1790" />
    <sodipodi:guide
       position="335.20992,71.896207"
       orientation="0,-1"
       id="guide1792" />
  </sodipodi:namedview>
  <defs
     id="defs2" />
  <g
     inkscape:label="Capa 1"
     inkscape:groupmode="layer"
     id="layer1">
    <rect
       style="fill:#ffffff;stroke-width:3.77953;stroke-linecap:round;stroke-linejoin:round;fill-opacity:1"
       id="rect876"
       width="510.78674"
       height="510.78674"
       x="0"
       y="0" />
    <linearGradient
       id="python-original-a"
       gradientUnits="userSpaceOnUse"
       x1="70.252"
       y1="1237.476"
       x2="170.659"
       y2="1151.089"
       gradientTransform="matrix(0.563,0,0,-0.568,318.08238,817.59145)">
      <stop
         offset="0"
         stop-color="#5A9FD4"
         id="stop4256" />
      <stop
         offset="1"
         stop-color="#306998"
         id="stop4258" />
    </linearGradient>
    <linearGradient
       id="python-original-b"
       gradientUnits="userSpaceOnUse"
       x1="209.474"
       y1="1098.811"
       x2="173.62"
       y2="1149.537"
       gradientTransform="matrix(0.563,0,0,-0.568,318.08238,817.59145)">
      <stop
         offset="0"
         stop-color="#FFD43B"
         id="stop4261" />
      <stop
         offset="1"
         stop-color="#FFE873"
         id="stop4263" />
    </linearGradient>
    <radialGradient
       id="python-original-c"
       cx="1825.678"
       cy="444.45"
       r="26.743"
       gradientTransform="matrix(0,-0.24,-1.055,0,880.27638,657.09045)"
       gradientUnits="userSpaceOnUse">
      <stop
         offset="0"
         stop-color="#B8B8B8"
         stop-opacity=".498"
         id="stop4270" />
      <stop
         offset="1"
         stop-color="#7F7F7F"
         stop-opacity="0"
         id="stop4272" />
    </radialGradient>
    <g
       id="g4738"
       transform="matrix(3.444223,0,0,3.444223,-1161.2107,-325.45607)">
      <path
         fill="url(#python-original-a)"
         d="m 410.68838,111.76245 c -4.222,0.02 -8.252,0.379 -11.8,1.007 -10.45,1.846 -12.346,5.71 -12.346,12.837 v 9.411 h 24.693 v 3.137 h -33.961 c -7.176,0 -13.46,4.313 -15.426,12.521 -2.268,9.405 -2.368,15.275 0,25.096 1.755,7.311 5.947,12.519 13.124,12.519 h 8.491 v -11.282 c 0,-8.151 7.051,-15.34 15.426,-15.34 h 24.665 c 6.866,0 12.346,-5.654 12.346,-12.548 v -23.513 c 0,-6.693 -5.646,-11.72 -12.346,-12.837 -4.244,-0.706 -8.645,-1.027 -12.866,-1.008 z m -13.354,7.569 c 2.55,0 4.634,2.117 4.634,4.721 0,2.593 -2.083,4.69 -4.634,4.69 -2.56,0 -4.633,-2.097 -4.633,-4.69 -10e-4,-2.604 2.073,-4.721 4.633,-4.721 z"
         id="path4266"
         style="fill:url(#python-original-a)" />
      <path
         fill="url(#python-original-b)"
         d="m 438.97938,138.15445 v 10.966 c 0,8.5 -7.208,15.655 -15.426,15.655 h -24.665 c -6.756,0 -12.346,5.783 -12.346,12.549 v 23.515 c 0,6.691 5.818,10.628 12.346,12.547 7.816,2.297 15.312,2.713 24.665,0 6.216,-1.801 12.346,-5.423 12.346,-12.547 v -9.412 h -24.664 v -3.138 h 37.012 c 7.176,0 9.852,-5.005 12.348,-12.519 2.578,-7.735 2.467,-15.174 0,-25.096 -1.774,-7.145 -5.161,-12.521 -12.348,-12.521 h -9.268 z m -13.873,59.547 c 2.561,0 4.634,2.097 4.634,4.692 0,2.602 -2.074,4.719 -4.634,4.719 -2.55,0 -4.633,-2.117 -4.633,-4.719 0,-2.595 2.083,-4.692 4.633,-4.692 z"
         id="path4268"
         style="fill:url(#python-original-b)" />
      <path
         opacity="0.444"
         fill="url(#python-original-c)"
         d="m 444.60638,219.11145 c 0,3.543 -14.816,6.416 -33.091,6.416 -18.276,0 -33.092,-2.873 -33.092,-6.416 0,-3.544 14.815,-6.417 33.092,-6.417 18.275,0 33.091,2.872 33.091,6.417 z"
         id="path4275"
         style="fill:url(#python-original-c)" />
    </g>
  </g>
</svg>
