<svg xmlns="http://www.w3.org/2000/svg" width="160" height="46" fill="#444"><g filter="url(#a)"><mask id="b" width="160" height="39" x="0" y="0" maskUnits="userSpaceOnUse" style="mask-type:luminance"><path fill="#aaa" d="M19.508 0h120.234v39H19.508V0ZM.955 13.38v14.526h158.652V13.38H.955Z"/></mask><g fill="#444" mask="url(#b)"><path d="M20.97 1.523h7.772L40.703 33.74 52.627 1.523h8.647L73.236 33.74 85.16 1.523h7.809L78.684 37.505h-9.676l-12-31.695-12.114 31.695h-9.676L20.97 1.523ZM125.761 21.632c1.65.57 3.25 1.79 4.8 3.659 1.574 1.869 3.149 4.438 4.723 7.708l2.995 4.506h-8.266l-2.462-3.533c-1.879-3.893-3.708-6.475-5.486-7.747-1.752-1.271-4.152-1.907-7.199-1.907h-8.381v13.187H98.79V1.523h17.371c6.501 0 9.547-.457 12.747 2.32 3.2 2.777 4.226 4.348 4.198 7.962-.026 3.292-2.978 6.847-.107 4.805-1.651 2.413-4.064 4.087-7.238 5.022Zm-19.276-17.03v13.253h9.676c3.708 0 6.501-.869 8.381-2.608 1.904-1.764 1.954.265 1.954-3.134 0-3.4-.05-3.19-1.954-4.902-1.88-1.739-4.675-2.49-8.381-2.608h-9.676Z"/></g><path fill="#000" d="M20.215 27.526v.581H143.85v-.581H20.215ZM20.215 13.382v.58H143.85v-.58H20.215ZM22.5 16.786h1l1.537 6.315 1.533-6.315h1.112L29.22 23.1l1.533-6.315h1.003l-1.836 7.471h-1.244l-1.543-6.486-1.557 6.486h-1.244L22.5 16.786ZM36.57 18.652h.901v5.605h-.9v-5.605Zm0-2.182h.901v1.166h-.9V16.47ZM43.118 16.47h.901v7.787h-.9V16.47ZM53.163 18.817v.871a3.474 3.474 0 0 0-1.646-.4c-.447 0-.784.07-1.009.21-.222.14-.333.35-.333.63 0 .214.08.383.24.506.16.12.482.235.965.345l.308.07c.64.14 1.094.34 1.362.596.27.254.406.609.406 1.066 0 .52-.202.933-.607 1.236-.401.304-.955.456-1.66.456-.294 0-.6-.03-.92-.09a7.292 7.292 0 0 1-1.005-.26V23.1c.333.177.661.31.985.4.323.087.643.13.96.13.424 0 .75-.073.979-.22a.714.714 0 0 0 .343-.63c0-.25-.084-.442-.25-.575-.163-.134-.524-.262-1.082-.386l-.314-.075c-.558-.12-.961-.303-1.21-.55-.247-.25-.372-.593-.372-1.026 0-.527.183-.935.549-1.221.366-.287.885-.43 1.557-.43.333 0 .647.024.94.074.294.05.565.125.814.225ZM60.778 19.298c-.483 0-.865.193-1.146.58-.28.384-.421.911-.421 1.582 0 .67.139 1.2.416 1.586.28.384.664.576 1.15.576.48 0 .861-.194 1.142-.58.28-.388.421-.915.421-1.582 0-.664-.14-1.19-.421-1.577a1.333 1.333 0 0 0-1.141-.585Zm0-.78c.783 0 1.399.26 1.846.78.447.52.671 1.241.671 2.162 0 .917-.224 1.638-.67 2.162-.448.52-1.064.78-1.847.78-.787 0-1.404-.26-1.851-.78-.444-.524-.666-1.245-.666-2.162 0-.921.222-1.642.666-2.162.447-.52 1.064-.78 1.85-.78ZM73.11 20.874v3.383h-.902v-3.353c0-.53-.101-.927-.303-1.19-.203-.264-.507-.396-.911-.396-.487 0-.87.158-1.151.475-.281.317-.421.75-.421 1.297v3.167h-.906v-5.605h.906v.871a2.23 2.23 0 0 1 .759-.756c.294-.166.631-.25 1.013-.25.63 0 1.107.2 1.43.6.324.398.485.983.485 1.757ZM89.123 20.754c.213.074.418.23.617.47.203.24.405.571.608.991l1.004 2.042h-1.063l-.936-1.916c-.241-.5-.476-.833-.705-.996-.225-.164-.533-.245-.925-.245h-1.078v3.157h-.989v-7.471h2.233c.836 0 1.46.178 1.871.535.411.357.617.896.617 1.616 0 .471-.108.861-.323 1.172-.212.31-.523.525-.93.645Zm-2.478-3.138v2.653h1.244c.477 0 .836-.112 1.078-.336.245-.226.367-.558.367-.995 0-.438-.123-.766-.367-.986-.242-.224-.601-.336-1.078-.336h-1.244ZM98.022 19.298c-.484 0-.866.193-1.146.58-.281.384-.421.911-.421 1.582 0 .67.138 1.2.416 1.586.28.384.664.576 1.15.576.48 0 .861-.194 1.142-.58.28-.388.421-.915.421-1.582 0-.664-.14-1.19-.421-1.577a1.333 1.333 0 0 0-1.141-.585Zm0-.78c.783 0 1.399.26 1.846.78.447.52.671 1.241.671 2.162 0 .917-.224 1.638-.671 2.162-.447.52-1.063.78-1.846.78-.787 0-1.404-.26-1.852-.78-.444-.524-.666-1.245-.666-2.162 0-.921.222-1.642.666-2.162.448-.52 1.065-.78 1.852-.78ZM110.064 19.728c.226-.414.495-.719.808-.916.314-.197.683-.295 1.107-.295.571 0 1.012.205 1.322.616.311.407.466.987.466 1.741v3.383h-.906v-3.353c0-.537-.093-.936-.28-1.196-.186-.26-.47-.39-.852-.39-.467 0-.835.158-1.106.475-.271.317-.407.75-.407 1.297v3.167h-.906v-3.353c0-.54-.093-.939-.279-1.196-.186-.26-.473-.39-.862-.39-.46 0-.826.16-1.097.48-.271.317-.406.748-.406 1.292v3.167h-.906v-5.605h.906v.871c.205-.344.452-.597.739-.76.287-.164.629-.246 1.024-.246.398 0 .736.104 1.013.31.281.207.488.507.622.901ZM124.017 21.225v.45h-4.143c.039.634.225 1.118.558 1.451.336.33.803.496 1.4.496.347 0 .681-.044 1.004-.13.327-.087.65-.217.97-.39v.87a5.32 5.32 0 0 1-.994.32 4.88 4.88 0 0 1-1.033.11c-.875 0-1.569-.26-2.082-.78-.509-.52-.764-1.225-.764-2.112 0-.918.242-1.645.725-2.182.487-.54 1.141-.81 1.964-.81.738 0 1.321.243 1.748.73.431.484.647 1.142.647 1.977Zm-.901-.27c-.007-.504-.146-.906-.417-1.207-.267-.3-.623-.45-1.067-.45-.503 0-.906.145-1.21.435-.3.29-.473.7-.519 1.226l3.213-.005ZM132.435 19.513a1.12 1.12 0 0 0-.333-.13 1.581 1.581 0 0 0-.392-.045c-.509 0-.901.17-1.175.51-.271.337-.407.823-.407 1.457v2.952h-.906v-5.605h.906v.871c.19-.34.436-.592.74-.756.304-.166.673-.25 1.107-.25.062 0 .13.005.205.015.076.007.159.018.25.035l.005.946ZM139.047 19.298a1.34 1.34 0 0 0-1.146.58c-.281.384-.422.911-.422 1.582 0 .67.139 1.2.417 1.586.28.384.664.576 1.151.576.479 0 .86-.194 1.141-.58.28-.388.421-.915.421-1.582 0-.664-.141-1.19-.421-1.577a1.335 1.335 0 0 0-1.141-.585Zm0-.78c.783 0 1.399.26 1.846.78.447.52.671 1.241.671 2.162 0 .917-.224 1.638-.671 2.162-.447.52-1.063.78-1.846.78-.787 0-1.404-.26-1.852-.78-.444-.524-.666-1.245-.666-2.162 0-.921.222-1.642.666-2.162.448-.52 1.065-.78 1.852-.78Z"/></g><defs><filter id="a" width="131.635" height="44.01" x="16.215" y="1.495" color-interpolation-filters="sRGB" filterUnits="userSpaceOnUse"><feFlood flood-opacity="0" result="BackgroundImageFix"/><feColorMatrix in="SourceAlpha" result="hardAlpha" values="0 0 0 0 0 0 0 0 0 0 0 0 0 0 0 0 0 0 127 0"/><feOffset dy="4"/><feGaussianBlur stdDeviation="2"/><feComposite in2="hardAlpha" operator="out"/><feColorMatrix values="0 0 0 0 0 0 0 0 0 0 0 0 0 0 0 0 0 0 0.25 0"/><feBlend in2="BackgroundImageFix" result="effect1_dropShadow_1_52"/><feBlend in="SourceGraphic" in2="effect1_dropShadow_1_52" result="shape"/></filter></defs></svg>